<svg version="1.1" viewBox="0.0 0.0 600.0 371.0" fill="none" stroke="none" stroke-linecap="square" stroke-miterlimit="10" width="600" height="371" xmlns:xlink="http://www.w3.org/1999/xlink" xmlns="http://www.w3.org/2000/svg"><path fill="#ffffff" d="M0 0L600.0 0L600.0 371.0L0 371.0L0 0Z" fill-rule="nonzero"/><path stroke="#333333" stroke-width="1.0" stroke-linecap="butt" d="M140.5 81.5L140.5 332.5" fill-rule="nonzero"/><path stroke="#cccccc" stroke-width="1.0" stroke-linecap="butt" d="M287.5 81.5L287.5 332.5" fill-rule="nonzero"/><path stroke="#cccccc" stroke-width="1.0" stroke-linecap="butt" d="M434.5 81.5L434.5 332.5" fill-rule="nonzero"/><path stroke="#cccccc" stroke-width="1.0" stroke-linecap="butt" d="M581.5 81.5L581.5 332.5" fill-rule="nonzero"/><clipPath id="id_0"><path d="M140.55 81.28333L581.45 81.28333L581.45 332.45L140.55 332.45L140.55 81.28333Z" clip-rule="nonzero"/></clipPath><path stroke="#000000" stroke-width="2.0" stroke-linecap="butt" stroke-opacity="0.0" clip-path="url(#id_0)" d="M141.0 131.0L141.0 108.0L323.0 108.0C324.10458 108.0 325.0 108.89543 325.0 110.0L325.0 129.0C325.0 130.10457 324.10458 131.0 323.0 131.0Z" fill-rule="nonzero"/><path fill="#4285f4" clip-path="url(#id_0)" d="M141.0 131.0L141.0 108.0L323.0 108.0C324.10458 108.0 325.0 108.89543 325.0 110.0L325.0 129.0C325.0 130.10457 324.10458 131.0 323.0 131.0Z" fill-rule="nonzero"/><path stroke="#000000" stroke-width="2.0" stroke-linecap="butt" stroke-opacity="0.0" clip-path="url(#id_0)" d="M141.0 206.0L141.0 183.0L419.0 183.0C420.10458 183.0 421.0 183.89543 421.0 185.0L421.0 204.0C421.0 205.10457 420.10458 206.0 419.0 206.0Z" fill-rule="nonzero"/><path fill="#4285f4" clip-path="url(#id_0)" d="M141.0 206.0L141.0 183.0L419.0 183.0C420.10458 183.0 421.0 183.89543 421.0 185.0L421.0 204.0C421.0 205.10457 420.10458 206.0 419.0 206.0Z" fill-rule="nonzero"/><path stroke="#000000" stroke-width="2.0" stroke-linecap="butt" stroke-opacity="0.0" clip-path="url(#id_0)" d="M141.0 281.0L141.0 258.0L241.0 258.0C242.10457 258.0 243.0 258.89542 243.0 260.0L243.0 279.0C243.0 280.10458 242.10457 281.0 241.0 281.0Z" fill-rule="nonzero"/><path fill="#4285f4" clip-path="url(#id_0)" d="M141.0 281.0L141.0 258.0L241.0 258.0C242.10457 258.0 243.0 258.89542 243.0 260.0L243.0 279.0C243.0 280.10458 242.10457 281.0 241.0 281.0Z" fill-rule="nonzero"/><path stroke="#000000" stroke-width="2.0" stroke-linecap="butt" stroke-opacity="0.0" clip-path="url(#id_0)" d="M141.0 155.0L141.0 132.0L419.0 132.0C420.10458 132.0 421.0 132.89543 421.0 134.0L421.0 153.0C421.0 154.10457 420.10458 155.0 419.0 155.0Z" fill-rule="nonzero"/><path fill="#ea4335" clip-path="url(#id_0)" d="M141.0 155.0L141.0 132.0L419.0 132.0C420.10458 132.0 421.0 132.89543 421.0 134.0L421.0 153.0C421.0 154.10457 420.10458 155.0 419.0 155.0Z" fill-rule="nonzero"/><path stroke="#000000" stroke-width="2.0" stroke-linecap="butt" stroke-opacity="0.0" clip-path="url(#id_0)" d="M141.0 230.0L141.0 207.0L510.0 207.0C511.10458 207.0 512.0 207.89543 512.0 209.0L512.0 228.0C512.0 229.10457 511.10458 230.0 510.0 230.0Z" fill-rule="nonzero"/><path fill="#ea4335" clip-path="url(#id_0)" d="M141.0 230.0L141.0 207.0L510.0 207.0C511.10458 207.0 512.0 207.89543 512.0 209.0L512.0 228.0C512.0 229.10457 511.10458 230.0 510.0 230.0Z" fill-rule="nonzero"/><path stroke="#000000" stroke-width="2.0" stroke-linecap="butt" stroke-opacity="0.0" clip-path="url(#id_0)" d="M141.0 305.0L141.0 282.0L254.0 282.0C255.10457 282.0 256.0 282.89542 256.0 284.0L256.0 303.0C256.0 304.10458 255.10457 305.0 254.0 305.0Z" fill-rule="nonzero"/><path fill="#ea4335" clip-path="url(#id_0)" d="M141.0 305.0L141.0 282.0L254.0 282.0C255.10457 282.0 256.0 282.89542 256.0 284.0L256.0 303.0C256.0 304.10458 255.10457 305.0 254.0 305.0Z" fill-rule="nonzero"/><path fill="#000000" d="M27.268763 225.5073L27.409388 224.47604Q28.471888 224.64792 29.081263 225.35104Q29.690638 226.05417 29.690638 227.0698Q29.690638 228.35104 28.862513 229.1323Q28.018763 229.89792 26.456263 229.89792Q25.456263 229.89792 24.706263 229.5698Q23.940638 229.22604 23.565638 228.55417Q23.190638 227.86667 23.190638 227.05417Q23.190638 226.05417 23.706263 225.41354Q24.206263 224.7573 25.159388 224.5698L25.315638 225.60104Q24.690638 225.74167 24.378138 226.11667Q24.050013 226.49167 24.050013 227.02292Q24.050013 227.8198 24.628138 228.3198Q25.190638 228.8198 26.425013 228.8198Q27.690638 228.8198 28.253138 228.33542Q28.815638 227.85104 28.815638 227.08542Q28.815638 226.46042 28.440638 226.05417Q28.065638 225.6323 27.268763 225.5073ZM29.550013 223.58542L23.331263 223.58542L23.331263 222.6323L24.268763 222.6323Q23.612513 222.27292 23.409388 221.97604Q23.190638 221.66354 23.190638 221.28854Q23.190638 220.7573 23.518763 220.21042L24.503138 220.5698Q24.268763 220.96042 24.268763 221.33542Q24.268763 221.6948 24.487513 221.97604Q24.690638 222.24167 25.065638 222.35104Q25.628138 222.53854 26.284388 222.53854L29.550013 222.53854L29.550013 223.58542ZM28.784388 215.5073Q29.284388 216.10104 29.487513 216.64792Q29.690638 217.17917 29.690638 217.80417Q29.690638 218.83542 29.190638 219.3823Q28.690638 219.92917 27.909388 219.92917Q27.456263 219.92917 27.081263 219.72604Q26.690638 219.52292 26.471888 219.17917Q26.237513 218.83542 26.128138 218.41354Q26.034388 218.11667 25.956263 217.47604Q25.815638 216.21042 25.596888 215.60104Q25.378138 215.60104 25.331263 215.60104Q24.675013 215.60104 24.409388 215.89792Q24.065638 216.30417 24.065638 217.10104Q24.065638 217.83542 24.331263 218.1948Q24.581263 218.55417 25.237513 218.72604L25.096888 219.7573Q24.440638 219.61667 24.034388 219.28854Q23.628138 218.96042 23.409388 218.35104Q23.190638 217.74167 23.190638 216.9448Q23.190638 216.14792 23.378138 215.64792Q23.565638 215.14792 23.846888 214.91354Q24.128138 214.67917 24.565638 214.58542Q24.831263 214.53854 25.534388 214.53854L26.940638 214.53854Q28.409388 214.53854 28.800013 214.47604Q29.190638 214.39792 29.550013 214.1948L29.550013 215.30417Q29.221888 215.46042 28.784388 215.5073ZM26.425013 215.60104Q26.659388 216.17917 26.831263 217.3198Q26.925013 217.97604 27.050013 218.24167Q27.159388 218.5073 27.378138 218.66354Q27.596888 218.80417 27.878138 218.80417Q28.300013 218.80417 28.581263 218.49167Q28.862513 218.16354 28.862513 217.55417Q28.862513 216.9448 28.596888 216.47604Q28.331263 215.99167 27.862513 215.77292Q27.503138 215.60104 26.815638 215.60104L26.425013 215.60104ZM28.612513 210.27292L29.534388 210.11667Q29.628138 210.5698 29.628138 210.91354Q29.628138 211.49167 29.456263 211.80417Q29.268763 212.11667 28.971888 212.2573Q28.675013 212.3823 27.721888 212.3823L24.143763 212.3823L24.143763 213.14792L23.331263 213.14792L23.331263 212.3823L21.784388 212.3823L21.159388 211.33542L23.331263 211.33542L23.331263 210.27292L24.143763 210.27292L24.143763 211.33542L27.784388 211.33542Q28.237513 211.33542 28.362513 211.28854Q28.487513 211.22604 28.565638 211.10104Q28.643763 210.97604 28.643763 210.74167Q28.643763 210.55417 28.612513 210.27292ZM27.550013 205.3198L27.675013 204.22604Q28.628138 204.47604 29.159388 205.17917Q29.690638 205.8823 29.690638 206.96042Q29.690638 208.3198 28.846888 209.1323Q28.003138 209.92917 26.487513 209.92917Q24.925013 209.92917 24.065638 209.11667Q23.190638 208.30417 23.190638 207.02292Q23.190638 205.77292 24.034388 204.99167Q24.878138 204.1948 26.425013 204.1948Q26.518763 204.1948 26.706263 204.1948L26.706263 208.83542Q27.737513 208.77292 28.284388 208.2573Q28.815638 207.74167 28.815638 206.96042Q28.815638 206.3823 28.518763 205.97604Q28.206263 205.55417 27.550013 205.3198ZM25.846888 208.77292L25.846888 205.30417Q25.050013 205.36667 24.659388 205.6948Q24.050013 206.21042 24.050013 207.0073Q24.050013 207.74167 24.534388 208.24167Q25.018763 208.72604 25.846888 208.77292Z" fill-rule="nonzero"/><path fill="#000000" d="M108.34688 135.89154L108.34688 127.29779L109.40938 127.29779L109.40938 132.20404L111.89375 129.67279L113.26875 129.67279L110.87813 131.96967L113.50313 135.89154L112.20625 135.89154L110.14375 132.70404L109.40938 133.42279L109.40938 135.89154L108.34688 135.89154ZM119.59688 134.87592L119.59688 135.89154L113.90938 135.89154Q113.90938 135.51654 114.03438 135.15717Q114.25313 134.57904 114.72188 134.01654Q115.20625 133.45404 116.1125 132.71967Q117.51875 131.56342 118.00313 130.89154Q118.50313 130.21967 118.50313 129.62592Q118.50313 129.00092 118.05 128.57904Q117.59688 128.14154 116.87813 128.14154Q116.1125 128.14154 115.65938 128.59467Q115.20625 129.04779 115.19063 129.86029L114.1125 129.75092Q114.22188 128.53217 114.94063 127.907166Q115.675 127.26654 116.90938 127.26654Q118.14375 127.26654 118.8625 127.95404Q119.58125 128.64154 119.58125 129.65717Q119.58125 130.17279 119.3625 130.67279Q119.15938 131.15717 118.65938 131.71967Q118.175 132.26654 117.05 133.21967Q116.09688 134.01654 115.81563 134.31342Q115.55 134.59467 115.37813 134.87592L119.59688 134.87592ZM121.05 133.64154L122.15938 133.54779Q122.28438 134.36029 122.72188 134.76654Q123.175 135.17279 123.81563 135.17279Q124.56563 135.17279 125.09688 134.59467Q125.62813 134.01654 125.62813 133.07904Q125.62813 132.17279 125.1125 131.65717Q124.6125 131.12592 123.78438 131.12592Q123.28438 131.12592 122.8625 131.36029Q122.45625 131.59467 122.22188 131.95404L121.2375 131.82904L122.06563 127.42279L126.34688 127.42279L126.34688 128.42279L122.90938 128.42279L122.45625 130.73529Q123.22188 130.18842 124.06563 130.18842Q125.19063 130.18842 125.95625 130.96967Q126.7375 131.75092 126.7375 132.98529Q126.7375 134.14154 126.06563 135.00092Q125.2375 136.03217 123.81563 136.03217Q122.64375 136.03217 121.89375 135.37592Q121.15938 134.71967 121.05 133.64154ZM133.51875 129.40717L132.47188 129.48529Q132.33125 128.86029 132.08125 128.57904Q131.64375 128.12592 131.01875 128.12592Q130.51875 128.12592 130.12813 128.40717Q129.64375 128.78217 129.34688 129.48529Q129.06563 130.17279 129.05 131.45404Q129.425 130.87592 129.97188 130.59467Q130.53438 130.31342 131.14375 130.31342Q132.19063 130.31342 132.925 131.09467Q133.675 131.87592 133.675 133.09467Q133.675 133.90717 133.31563 134.61029Q132.97188 135.29779 132.3625 135.67279Q131.75313 136.03217 130.9875 136.03217Q129.65938 136.03217 128.83125 135.06342Q128.00313 134.09467 128.00313 131.87592Q128.00313 129.37592 128.925 128.25092Q129.72188 127.26654 131.08125 127.26654Q132.09688 127.26654 132.7375 127.844666Q133.39375 128.40717 133.51875 129.40717ZM129.22188 133.11029Q129.22188 133.65717 129.44063 134.15717Q129.675 134.64154 130.08125 134.90717Q130.50313 135.17279 130.97188 135.17279Q131.62813 135.17279 132.1125 134.64154Q132.59688 134.09467 132.59688 133.17279Q132.59688 132.28217 132.1125 131.76654Q131.64375 131.25092 130.925 131.25092Q130.20625 131.25092 129.70625 131.76654Q129.22188 132.28217 129.22188 133.11029Z" fill-rule="nonzero"/><path fill="#000000" d="M62.315624 210.86667L62.315624 202.27292L63.378124 202.27292L63.378124 210.86667L62.315624 210.86667ZM65.34688 203.49167L65.34688 202.27292L66.40938 202.27292L66.40938 203.49167L65.34688 203.49167ZM65.34688 210.86667L65.34688 204.64792L66.40938 204.64792L66.40938 210.86667L65.34688 210.86667ZM69.31563 210.86667L68.33125 210.86667L68.33125 202.27292L69.39375 202.27292L69.39375 205.33542Q70.06563 204.5073 71.09688 204.5073Q71.675 204.5073 72.175 204.74167Q72.69063 204.96042 73.01875 205.3823Q73.3625 205.80417 73.55 206.39792Q73.7375 206.99167 73.7375 207.66354Q73.7375 209.2573 72.94063 210.1323Q72.14375 211.0073 71.05 211.0073Q69.94063 211.0073 69.31563 210.08542L69.31563 210.86667ZM69.3 207.71042Q69.3 208.8198 69.6125 209.3198Q70.1125 210.1323 70.95625 210.1323Q71.64375 210.1323 72.14375 209.53854Q72.65938 208.9448 72.65938 207.74167Q72.65938 206.52292 72.175 205.9448Q71.69063 205.36667 71.00313 205.36667Q70.31563 205.36667 69.8 205.97604Q69.3 206.5698 69.3 207.71042ZM74.925 209.0073L75.95625 208.85104Q76.05 209.47604 76.44063 209.80417Q76.84688 210.1323 77.58125 210.1323Q78.3 210.1323 78.64375 209.85104Q79.00313 209.55417 79.00313 209.14792Q79.00313 208.78854 78.69063 208.58542Q78.47188 208.4448 77.6125 208.22604Q76.45625 207.92917 76.00313 207.72604Q75.56563 207.5073 75.33125 207.1323Q75.09688 206.7573 75.09688 206.28854Q75.09688 205.8823 75.28438 205.52292Q75.47188 205.16354 75.8 204.92917Q76.05 204.7573 76.47188 204.6323Q76.89375 204.5073 77.39375 204.5073Q78.1125 204.5073 78.65938 204.72604Q79.22188 204.92917 79.4875 205.28854Q79.75313 205.64792 79.84688 206.24167L78.81563 206.3823Q78.75313 205.91354 78.40938 205.64792Q78.08125 205.36667 77.45625 205.36667Q76.7375 205.36667 76.425 205.61667Q76.1125 205.85104 76.1125 206.17917Q76.1125 206.3823 76.2375 206.53854Q76.37813 206.71042 76.64375 206.8198Q76.8 206.8823 77.58125 207.08542Q78.70625 207.39792 79.14375 207.58542Q79.58125 207.77292 79.83125 208.1323Q80.08125 208.49167 80.08125 209.03854Q80.08125 209.5698 79.76875 210.03854Q79.47188 210.49167 78.89375 210.7573Q78.31563 211.0073 77.58125 211.0073Q76.3625 211.0073 75.72188 210.5073Q75.09688 209.99167 74.925 209.0073ZM85.59688 208.86667L86.69063 208.99167Q86.44063 209.9448 85.7375 210.47604Q85.03438 211.0073 83.95625 211.0073Q82.59688 211.0073 81.78438 210.16354Q80.9875 209.3198 80.9875 207.80417Q80.9875 206.24167 81.8 205.3823Q82.6125 204.5073 83.89375 204.5073Q85.14375 204.5073 85.925 205.35104Q86.72188 206.1948 86.72188 207.74167Q86.72188 207.83542 86.72188 208.02292L82.08125 208.02292Q82.14375 209.05417 82.65938 209.60104Q83.175 210.1323 83.95625 210.1323Q84.53438 210.1323 84.94063 209.83542Q85.3625 209.52292 85.59688 208.86667ZM82.14375 207.16354L85.6125 207.16354Q85.55 206.36667 85.22188 205.97604Q84.70625 205.36667 83.90938 205.36667Q83.175 205.36667 82.675 205.85104Q82.19063 206.33542 82.14375 207.16354ZM92.40938 208.58542L93.44063 208.72604Q93.26875 209.78854 92.56563 210.39792Q91.8625 211.0073 90.84688 211.0073Q89.56563 211.0073 88.78438 210.17917Q88.01875 209.33542 88.01875 207.77292Q88.01875 206.77292 88.34688 206.02292Q88.69063 205.2573 89.3625 204.8823Q90.05 204.5073 90.8625 204.5073Q91.8625 204.5073 92.50313 205.02292Q93.15938 205.52292 93.34688 206.47604L92.31563 206.6323Q92.175 206.0073 91.8 205.6948Q91.425 205.36667 90.89375 205.36667Q90.09688 205.36667 89.59688 205.9448Q89.09688 206.5073 89.09688 207.74167Q89.09688 209.0073 89.58125 209.5698Q90.06563 210.1323 90.83125 210.1323Q91.45625 210.1323 91.8625 209.7573Q92.28438 209.3823 92.40938 208.58542ZM94.34688 213.2573L94.34688 204.64792L95.3 204.64792L95.3 205.4448Q95.64375 204.97604 96.06563 204.74167Q96.50313 204.5073 97.1125 204.5073Q97.90938 204.5073 98.51875 204.91354Q99.12813 205.3198 99.425 206.0698Q99.7375 206.8198 99.7375 207.71042Q99.7375 208.66354 99.39375 209.42917Q99.06563 210.1948 98.40938 210.60104Q97.75313 211.0073 97.03438 211.0073Q96.50313 211.0073 96.08125 210.78854Q95.65938 210.55417 95.39375 210.22604L95.39375 213.2573L94.34688 213.2573ZM95.3 207.78854Q95.3 208.99167 95.78438 209.5698Q96.26875 210.1323 96.95625 210.1323Q97.65938 210.1323 98.15938 209.53854Q98.65938 208.9448 98.65938 207.6948Q98.65938 206.5073 98.175 205.92917Q97.69063 205.33542 97.00313 205.33542Q96.33125 205.33542 95.81563 205.96042Q95.3 206.58542 95.3 207.78854ZM106.59688 209.85104L106.59688 210.86667L100.90938 210.86667Q100.90938 210.49167 101.03438 210.1323Q101.25313 209.55417 101.72188 208.99167Q102.20625 208.42917 103.1125 207.6948Q104.51875 206.53854 105.00313 205.86667Q105.50313 205.1948 105.50313 204.60104Q105.50313 203.97604 105.05 203.55417Q104.59688 203.11667 103.87813 203.11667Q103.1125 203.11667 102.65938 203.5698Q102.20625 204.02292 102.19063 204.83542L101.1125 204.72604Q101.22188 203.5073 101.94063 202.8823Q102.675 202.24167 103.90938 202.24167Q105.14375 202.24167 105.8625 202.92917Q106.58125 203.61667 106.58125 204.6323Q106.58125 205.14792 106.3625 205.64792Q106.15938 206.1323 105.65938 206.6948Q105.175 207.24167 104.05 208.1948Q103.09688 208.99167 102.81563 209.28854Q102.55 209.5698 102.37813 209.85104L106.59688 209.85104ZM108.05 208.61667L109.15938 208.52292Q109.28438 209.33542 109.72188 209.74167Q110.175 210.14792 110.81563 210.14792Q111.56563 210.14792 112.09688 209.5698Q112.62813 208.99167 112.62813 208.05417Q112.62813 207.14792 112.1125 206.6323Q111.6125 206.10104 110.78438 206.10104Q110.28438 206.10104 109.8625 206.33542Q109.45625 206.5698 109.22188 206.92917L108.2375 206.80417L109.06563 202.39792L113.34688 202.39792L113.34688 203.39792L109.90938 203.39792L109.45625 205.71042Q110.22188 205.16354 111.06563 205.16354Q112.19063 205.16354 112.95625 205.9448Q113.7375 206.72604 113.7375 207.96042Q113.7375 209.11667 113.06563 209.97604Q112.2375 211.0073 110.81563 211.0073Q109.64375 211.0073 108.89375 210.35104Q108.15938 209.6948 108.05 208.61667ZM120.51875 204.3823L119.47188 204.46042Q119.33125 203.83542 119.08125 203.55417Q118.64375 203.10104 118.01875 203.10104Q117.51875 203.10104 117.12813 203.3823Q116.64375 203.7573 116.34688 204.46042Q116.06563 205.14792 116.05 206.42917Q116.425 205.85104 116.97188 205.5698Q117.53438 205.28854 118.14375 205.28854Q119.19063 205.28854 119.925 206.0698Q120.675 206.85104 120.675 208.0698Q120.675 208.8823 120.31563 209.58542Q119.97188 210.27292 119.3625 210.64792Q118.75313 211.0073 117.9875 211.0073Q116.65938 211.0073 115.83125 210.03854Q115.00313 209.0698 115.00313 206.85104Q115.00313 204.35104 115.925 203.22604Q116.72188 202.24167 118.08125 202.24167Q119.09688 202.24167 119.7375 202.8198Q120.39375 203.3823 120.51875 204.3823ZM116.22188 208.08542Q116.22188 208.6323 116.44063 209.1323Q116.675 209.61667 117.08125 209.8823Q117.50313 210.14792 117.97188 210.14792Q118.62813 210.14792 119.1125 209.61667Q119.59688 209.0698 119.59688 208.14792Q119.59688 207.2573 119.1125 206.74167Q118.64375 206.22604 117.925 206.22604Q117.20625 206.22604 116.70625 206.74167Q116.22188 207.2573 116.22188 208.08542ZM122.34688 210.86667L122.34688 202.27292L123.40938 202.27292L123.40938 207.17917L125.89375 204.64792L127.26875 204.64792L124.87813 206.9448L127.50313 210.86667L126.20625 210.86667L124.14375 207.67917L123.40938 208.39792L123.40938 210.86667L122.34688 210.86667ZM132.01875 210.86667L130.97188 210.86667L130.97188 204.14792Q130.58125 204.5073 129.95625 204.8823Q129.34688 205.24167 128.8625 205.41354L128.8625 204.39792Q129.7375 203.97604 130.39375 203.39792Q131.06563 202.80417 131.34688 202.24167L132.01875 202.24167L132.01875 210.86667Z" fill-rule="nonzero"/><path fill="#000000" d="M51.33125 285.8418L51.33125 279.62305L52.284374 279.62305L52.284374 280.56055Q52.64375 279.9043 52.940624 279.70117Q53.253124 279.48242 53.628124 279.48242Q54.159374 279.48242 54.70625 279.81055L54.346874 280.79492Q53.95625 280.56055 53.58125 280.56055Q53.221874 280.56055 52.940624 280.7793Q52.675 280.98242 52.565624 281.35742Q52.378124 281.91992 52.378124 282.57617L52.378124 285.8418L51.33125 285.8418ZM59.425 285.8418L59.425 284.91992Q58.690624 285.98242 57.440624 285.98242Q56.89375 285.98242 56.409374 285.7793Q55.940624 285.56055 55.70625 285.24805Q55.471874 284.91992 55.378124 284.45117Q55.315624 284.1543 55.315624 283.4668L55.315624 279.62305L56.378124 279.62305L56.378124 283.07617Q56.378124 283.88867 56.440624 284.18555Q56.534374 284.5918 56.846874 284.8418Q57.175 285.07617 57.659374 285.07617Q58.128124 285.07617 58.534374 284.8418Q58.95625 284.5918 59.128124 284.16992Q59.315624 283.74805 59.315624 282.95117L59.315624 279.62305L60.3625 279.62305L60.3625 285.8418L59.425 285.8418ZM61.925 283.98242L62.95625 283.82617Q63.05 284.45117 63.440624 284.7793Q63.846874 285.10742 64.58125 285.10742Q65.3 285.10742 65.64375 284.82617Q66.00313 284.5293 66.00313 284.12305Q66.00313 283.76367 65.69063 283.56055Q65.47188 283.41992 64.6125 283.20117Q63.45625 282.9043 63.003124 282.70117Q62.565624 282.48242 62.33125 282.10742Q62.096874 281.73242 62.096874 281.26367Q62.096874 280.85742 62.284374 280.49805Q62.471874 280.13867 62.8 279.9043Q63.05 279.73242 63.471874 279.60742Q63.89375 279.48242 64.39375 279.48242Q65.1125 279.48242 65.65938 279.70117Q66.22188 279.9043 66.4875 280.26367Q66.75313 280.62305 66.84688 281.2168L65.81563 281.35742Q65.75313 280.88867 65.40938 280.62305Q65.08125 280.3418 64.45625 280.3418Q63.7375 280.3418 63.425 280.5918Q63.1125 280.82617 63.1125 281.1543Q63.1125 281.35742 63.2375 281.51367Q63.378124 281.68555 63.64375 281.79492Q63.8 281.85742 64.58125 282.06055Q65.70625 282.37305 66.14375 282.56055Q66.58125 282.74805 66.83125 283.10742Q67.08125 283.4668 67.08125 284.01367Q67.08125 284.54492 66.76875 285.01367Q66.47188 285.4668 65.89375 285.73242Q65.31563 285.98242 64.58125 285.98242Q63.3625 285.98242 62.721874 285.48242Q62.096874 284.9668 61.925 283.98242ZM70.64375 284.9043L70.8 285.82617Q70.34688 285.91992 70.00313 285.91992Q69.425 285.91992 69.1125 285.74805Q68.8 285.56055 68.65938 285.26367Q68.53438 284.9668 68.53438 284.01367L68.53438 280.43555L67.76875 280.43555L67.76875 279.62305L68.53438 279.62305L68.53438 278.07617L69.58125 277.45117L69.58125 279.62305L70.64375 279.62305L70.64375 280.43555L69.58125 280.43555L69.58125 284.07617Q69.58125 284.5293 69.62813 284.6543Q69.69063 284.7793 69.81563 284.85742Q69.94063 284.93555 70.175 284.93555Q70.3625 284.93555 70.64375 284.9043ZM70.925 283.26367L70.925 282.20117L74.175 282.20117L74.175 283.26367L70.925 283.26367ZM74.925 283.98242L75.95625 283.82617Q76.05 284.45117 76.44063 284.7793Q76.84688 285.10742 77.58125 285.10742Q78.3 285.10742 78.64375 284.82617Q79.00313 284.5293 79.00313 284.12305Q79.00313 283.76367 78.69063 283.56055Q78.47188 283.41992 77.6125 283.20117Q76.45625 282.9043 76.00313 282.70117Q75.56563 282.48242 75.33125 282.10742Q75.09688 281.73242 75.09688 281.26367Q75.09688 280.85742 75.28438 280.49805Q75.47188 280.13867 75.8 279.9043Q76.05 279.73242 76.47188 279.60742Q76.89375 279.48242 77.39375 279.48242Q78.1125 279.48242 78.65938 279.70117Q79.22188 279.9043 79.4875 280.26367Q79.75313 280.62305 79.84688 281.2168L78.81563 281.35742Q78.75313 280.88867 78.40938 280.62305Q78.08125 280.3418 77.45625 280.3418Q76.7375 280.3418 76.425 280.5918Q76.1125 280.82617 76.1125 281.1543Q76.1125 281.35742 76.2375 281.51367Q76.37813 281.68555 76.64375 281.79492Q76.8 281.85742 77.58125 282.06055Q78.70625 282.37305 79.14375 282.56055Q79.58125 282.74805 79.83125 283.10742Q80.08125 283.4668 80.08125 284.01367Q80.08125 284.54492 79.76875 285.01367Q79.47188 285.4668 78.89375 285.73242Q78.31563 285.98242 77.58125 285.98242Q76.3625 285.98242 75.72188 285.48242Q75.09688 284.9668 74.925 283.98242ZM85.59688 283.8418L86.69063 283.9668Q86.44063 284.91992 85.7375 285.45117Q85.03438 285.98242 83.95625 285.98242Q82.59688 285.98242 81.78438 285.13867Q80.9875 284.29492 80.9875 282.7793Q80.9875 281.2168 81.8 280.35742Q82.6125 279.48242 83.89375 279.48242Q85.14375 279.48242 85.925 280.32617Q86.72188 281.16992 86.72188 282.7168Q86.72188 282.81055 86.72188 282.99805L82.08125 282.99805Q82.14375 284.0293 82.65938 284.57617Q83.175 285.10742 83.95625 285.10742Q84.53438 285.10742 84.94063 284.81055Q85.3625 284.49805 85.59688 283.8418ZM82.14375 282.13867L85.6125 282.13867Q85.55 281.3418 85.22188 280.95117Q84.70625 280.3418 83.90938 280.3418Q83.175 280.3418 82.675 280.82617Q82.19063 281.31055 82.14375 282.13867ZM92.40938 283.56055L93.44063 283.70117Q93.26875 284.76367 92.56563 285.37305Q91.8625 285.98242 90.84688 285.98242Q89.56563 285.98242 88.78438 285.1543Q88.01875 284.31055 88.01875 282.74805Q88.01875 281.74805 88.34688 280.99805Q88.69063 280.23242 89.3625 279.85742Q90.05 279.48242 90.8625 279.48242Q91.8625 279.48242 92.50313 279.99805Q93.15938 280.49805 93.34688 281.45117L92.31563 281.60742Q92.175 280.98242 91.8 280.66992Q91.425 280.3418 90.89375 280.3418Q90.09688 280.3418 89.59688 280.91992Q89.09688 281.48242 89.09688 282.7168Q89.09688 283.98242 89.58125 284.54492Q90.06563 285.10742 90.83125 285.10742Q91.45625 285.10742 91.8625 284.73242Q92.28438 284.35742 92.40938 283.56055ZM94.34688 288.23242L94.34688 279.62305L95.3 279.62305L95.3 280.41992Q95.64375 279.95117 96.06563 279.7168Q96.50313 279.48242 97.1125 279.48242Q97.90938 279.48242 98.51875 279.88867Q99.12813 280.29492 99.425 281.04492Q99.7375 281.79492 99.7375 282.68555Q99.7375 283.63867 99.39375 284.4043Q99.06563 285.16992 98.40938 285.57617Q97.75313 285.98242 97.03438 285.98242Q96.50313 285.98242 96.08125 285.76367Q95.65938 285.5293 95.39375 285.20117L95.39375 288.23242L94.34688 288.23242ZM95.3 282.76367Q95.3 283.9668 95.78438 284.54492Q96.26875 285.10742 96.95625 285.10742Q97.65938 285.10742 98.15938 284.51367Q98.65938 283.91992 98.65938 282.66992Q98.65938 281.48242 98.175 280.9043Q97.69063 280.31055 97.00313 280.31055Q96.33125 280.31055 95.81563 280.93555Q95.3 281.56055 95.3 282.76367ZM106.59688 284.82617L106.59688 285.8418L100.90938 285.8418Q100.90938 285.4668 101.03438 285.10742Q101.25313 284.5293 101.72188 283.9668Q102.20625 283.4043 103.1125 282.66992Q104.51875 281.51367 105.00313 280.8418Q105.50313 280.16992 105.50313 279.57617Q105.50313 278.95117 105.05 278.5293Q104.59688 278.0918 103.87813 278.0918Q103.1125 278.0918 102.65938 278.54492Q102.20625 278.99805 102.19063 279.81055L101.1125 279.70117Q101.22188 278.48242 101.94063 277.85742Q102.675 277.2168 103.90938 277.2168Q105.14375 277.2168 105.8625 277.9043Q106.58125 278.5918 106.58125 279.60742Q106.58125 280.12305 106.3625 280.62305Q106.15938 281.10742 105.65938 281.66992Q105.175 282.2168 104.05 283.16992Q103.09688 283.9668 102.81563 284.26367Q102.55 284.54492 102.37813 284.82617L106.59688 284.82617ZM108.05 283.5918L109.15938 283.49805Q109.28438 284.31055 109.72188 284.7168Q110.175 285.12305 110.81563 285.12305Q111.56563 285.12305 112.09688 284.54492Q112.62813 283.9668 112.62813 283.0293Q112.62813 282.12305 112.1125 281.60742Q111.6125 281.07617 110.78438 281.07617Q110.28438 281.07617 109.8625 281.31055Q109.45625 281.54492 109.22188 281.9043L108.2375 281.7793L109.06563 277.37305L113.34688 277.37305L113.34688 278.37305L109.90938 278.37305L109.45625 280.68555Q110.22188 280.13867 111.06563 280.13867Q112.19063 280.13867 112.95625 280.91992Q113.7375 281.70117 113.7375 282.93555Q113.7375 284.0918 113.06563 284.95117Q112.2375 285.98242 110.81563 285.98242Q109.64375 285.98242 108.89375 285.32617Q108.15938 284.66992 108.05 283.5918ZM120.51875 279.35742L119.47188 279.43555Q119.33125 278.81055 119.08125 278.5293Q118.64375 278.07617 118.01875 278.07617Q117.51875 278.07617 117.12813 278.35742Q116.64375 278.73242 116.34688 279.43555Q116.06563 280.12305 116.05 281.4043Q116.425 280.82617 116.97188 280.54492Q117.53438 280.26367 118.14375 280.26367Q119.19063 280.26367 119.925 281.04492Q120.675 281.82617 120.675 283.04492Q120.675 283.85742 120.31563 284.56055Q119.97188 285.24805 119.3625 285.62305Q118.75313 285.98242 117.9875 285.98242Q116.65938 285.98242 115.83125 285.01367Q115.00313 284.04492 115.00313 281.82617Q115.00313 279.32617 115.925 278.20117Q116.72188 277.2168 118.08125 277.2168Q119.09688 277.2168 119.7375 277.79492Q120.39375 278.35742 120.51875 279.35742ZM116.22188 283.06055Q116.22188 283.60742 116.44063 284.10742Q116.675 284.5918 117.08125 284.85742Q117.50313 285.12305 117.97188 285.12305Q118.62813 285.12305 119.1125 284.5918Q119.59688 284.04492 119.59688 283.12305Q119.59688 282.23242 119.1125 281.7168Q118.64375 281.20117 117.925 281.20117Q117.20625 281.20117 116.70625 281.7168Q116.22188 282.23242 116.22188 283.06055ZM122.34688 285.8418L122.34688 277.24805L123.40938 277.24805L123.40938 282.1543L125.89375 279.62305L127.26875 279.62305L124.87813 281.91992L127.50313 285.8418L126.20625 285.8418L124.14375 282.6543L123.40938 283.37305L123.40938 285.8418L122.34688 285.8418ZM132.01875 285.8418L130.97188 285.8418L130.97188 279.12305Q130.58125 279.48242 129.95625 279.85742Q129.34688 280.2168 128.8625 280.38867L128.8625 279.37305Q129.7375 278.95117 130.39375 278.37305Q131.06563 277.7793 131.34688 277.2168L132.01875 277.2168L132.01875 285.8418Z" fill-rule="nonzero"/><path fill="#000000" d="M137.55 345.21564Q137.55 343.6844 137.8625 342.7625Q138.175 341.825 138.78438 341.325Q139.40938 340.825 140.34688 340.825Q141.03438 340.825 141.55 341.10626Q142.08125 341.3875 142.425 341.91876Q142.76875 342.4344 142.95625 343.1844Q143.14375 343.9344 143.14375 345.21564Q143.14375 346.73126 142.83125 347.65314Q142.53438 348.575 141.90938 349.09064Q141.3 349.59064 140.34688 349.59064Q139.1125 349.59064 138.39375 348.7Q137.55 347.6375 137.55 345.21564ZM138.62813 345.21564Q138.62813 347.325 139.12813 348.02814Q139.62813 348.73126 140.34688 348.73126Q141.08125 348.73126 141.56563 348.02814Q142.06563 347.325 142.06563 345.21564Q142.06563 343.09064 141.56563 342.40314Q141.08125 341.7 140.33125 341.7Q139.6125 341.7 139.175 342.3094Q138.62813 343.09064 138.62813 345.21564Z" fill-rule="nonzero"/><path fill="#000000" d="M281.4854 349.45L280.43854 349.45L280.43854 342.73126Q280.0479 343.09064 279.4229 343.46564Q278.81354 343.825 278.32916 343.9969L278.32916 342.98126Q279.20416 342.5594 279.8604 341.98126Q280.5323 341.3875 280.81354 340.825L281.4854 340.825L281.4854 349.45ZM284.51666 345.21564Q284.51666 343.6844 284.82916 342.7625Q285.14166 341.825 285.75104 341.325Q286.37604 340.825 287.31354 340.825Q288.00104 340.825 288.51666 341.10626Q289.0479 341.3875 289.39166 341.91876Q289.7354 342.4344 289.9229 343.1844Q290.1104 343.9344 290.1104 345.21564Q290.1104 346.73126 289.7979 347.65314Q289.50104 348.575 288.87604 349.09064Q288.26666 349.59064 287.31354 349.59064Q286.07916 349.59064 285.3604 348.7Q284.51666 347.6375 284.51666 345.21564ZM285.5948 345.21564Q285.5948 347.325 286.0948 348.02814Q286.5948 348.73126 287.31354 348.73126Q288.0479 348.73126 288.5323 348.02814Q289.0323 347.325 289.0323 345.21564Q289.0323 343.09064 288.5323 342.40314Q288.0479 341.7 287.2979 341.7Q286.57916 341.7 286.14166 342.3094Q285.5948 343.09064 285.5948 345.21564ZM291.51666 345.21564Q291.51666 343.6844 291.82916 342.7625Q292.14166 341.825 292.75104 341.325Q293.37604 340.825 294.31354 340.825Q295.00104 340.825 295.51666 341.10626Q296.0479 341.3875 296.39166 341.91876Q296.7354 342.4344 296.9229 343.1844Q297.1104 343.9344 297.1104 345.21564Q297.1104 346.73126 296.7979 347.65314Q296.50104 348.575 295.87604 349.09064Q295.26666 349.59064 294.31354 349.59064Q293.07916 349.59064 292.3604 348.7Q291.51666 347.6375 291.51666 345.21564ZM292.5948 345.21564Q292.5948 347.325 293.0948 348.02814Q293.5948 348.73126 294.31354 348.73126Q295.0479 348.73126 295.5323 348.02814Q296.0323 347.325 296.0323 345.21564Q296.0323 343.09064 295.5323 342.40314Q295.0479 341.7 294.2979 341.7Q293.57916 341.7 293.14166 342.3094Q292.5948 343.09064 292.5948 345.21564Z" fill-rule="nonzero"/><path fill="#000000" d="M430.0302 348.4344L430.0302 349.45L424.3427 349.45Q424.3427 349.075 424.4677 348.71564Q424.68646 348.1375 425.1552 347.575Q425.6396 347.0125 426.54584 346.27814Q427.9521 345.1219 428.43646 344.45Q428.93646 343.77814 428.93646 343.1844Q428.93646 342.5594 428.48334 342.1375Q428.0302 341.7 427.31146 341.7Q426.54584 341.7 426.0927 342.15314Q425.6396 342.60626 425.62396 343.41876L424.54584 343.3094Q424.6552 342.09064 425.37396 341.46564Q426.10834 340.825 427.3427 340.825Q428.5771 340.825 429.29584 341.5125Q430.0146 342.2 430.0146 343.21564Q430.0146 343.73126 429.79584 344.23126Q429.5927 344.71564 429.0927 345.27814Q428.60834 345.825 427.48334 346.77814Q426.5302 347.575 426.24896 347.8719Q425.98334 348.15314 425.81146 348.4344L430.0302 348.4344ZM431.48334 345.21564Q431.48334 343.6844 431.79584 342.7625Q432.10834 341.825 432.7177 341.325Q433.3427 340.825 434.2802 340.825Q434.9677 340.825 435.48334 341.10626Q436.0146 341.3875 436.35834 341.91876Q436.7021 342.4344 436.8896 343.1844Q437.0771 343.9344 437.0771 345.21564Q437.0771 346.73126 436.7646 347.65314Q436.4677 348.575 435.8427 349.09064Q435.23334 349.59064 434.2802 349.59064Q433.04584 349.59064 432.3271 348.7Q431.48334 347.6375 431.48334 345.21564ZM432.56146 345.21564Q432.56146 347.325 433.06146 348.02814Q433.56146 348.73126 434.2802 348.73126Q435.0146 348.73126 435.49896 348.02814Q435.99896 347.325 435.99896 345.21564Q435.99896 343.09064 435.49896 342.40314Q435.0146 341.7 434.2646 341.7Q433.54584 341.7 433.10834 342.3094Q432.56146 343.09064 432.56146 345.21564ZM438.48334 345.21564Q438.48334 343.6844 438.79584 342.7625Q439.10834 341.825 439.7177 341.325Q440.3427 340.825 441.2802 340.825Q441.9677 340.825 442.48334 341.10626Q443.0146 341.3875 443.35834 341.91876Q443.7021 342.4344 443.8896 343.1844Q444.0771 343.9344 444.0771 345.21564Q444.0771 346.73126 443.7646 347.65314Q443.4677 348.575 442.8427 349.09064Q442.23334 349.59064 441.2802 349.59064Q440.04584 349.59064 439.3271 348.7Q438.48334 347.6375 438.48334 345.21564ZM439.56146 345.21564Q439.56146 347.325 440.06146 348.02814Q440.56146 348.73126 441.2802 348.73126Q442.0146 348.73126 442.49896 348.02814Q442.99896 347.325 442.99896 345.21564Q442.99896 343.09064 442.49896 342.40314Q442.0146 341.7 441.2646 341.7Q440.54584 341.7 440.10834 342.3094Q439.56146 343.09064 439.56146 345.21564Z" fill-rule="nonzero"/><path fill="#000000" d="M571.45 347.1844L572.5125 347.04376Q572.6844 347.9344 573.1219 348.34064Q573.5594 348.73126 574.1844 348.73126Q574.9344 348.73126 575.45 348.21564Q575.96564 347.7 575.96564 346.9344Q575.96564 346.21564 575.48126 345.7469Q575.0125 345.2625 574.27814 345.2625Q573.98126 345.2625 573.52814 345.3875L573.65314 344.45Q573.7625 344.46564 573.825 344.46564Q574.4969 344.46564 575.02814 344.1219Q575.575 343.7625 575.575 343.02814Q575.575 342.45 575.1844 342.075Q574.79376 341.6844 574.16876 341.6844Q573.5594 341.6844 573.1375 342.075Q572.73126 342.46564 572.6219 343.23126L571.5594 343.04376Q571.7469 341.9969 572.4344 341.41876Q573.1219 340.825 574.1375 340.825Q574.84064 340.825 575.4344 341.1375Q576.02814 341.4344 576.34064 341.95Q576.65314 342.46564 576.65314 343.0594Q576.65314 343.60626 576.35626 344.075Q576.0594 344.52814 575.48126 344.79376Q576.23126 344.96564 576.65314 345.52814Q577.075 346.075 577.075 346.91876Q577.075 348.04376 576.2469 348.825Q575.4344 349.60626 574.1844 349.60626Q573.0594 349.60626 572.3094 348.9344Q571.5594 348.2469 571.45 347.1844ZM578.45 345.21564Q578.45 343.6844 578.7625 342.7625Q579.075 341.825 579.6844 341.325Q580.3094 340.825 581.2469 340.825Q581.9344 340.825 582.45 341.10626Q582.98126 341.3875 583.325 341.91876Q583.66876 342.4344 583.85626 343.1844Q584.04376 343.9344 584.04376 345.21564Q584.04376 346.73126 583.73126 347.65314Q583.4344 348.575 582.8094 349.09064Q582.2 349.59064 581.2469 349.59064Q580.0125 349.59064 579.29376 348.7Q578.45 347.6375 578.45 345.21564ZM579.52814 345.21564Q579.52814 347.325 580.02814 348.02814Q580.52814 348.73126 581.2469 348.73126Q581.98126 348.73126 582.46564 348.02814Q582.96564 347.325 582.96564 345.21564Q582.96564 343.09064 582.46564 342.40314Q581.98126 341.7 581.23126 341.7Q580.5125 341.7 580.075 342.3094Q579.52814 343.09064 579.52814 345.21564ZM585.45 345.21564Q585.45 343.6844 585.7625 342.7625Q586.075 341.825 586.6844 341.325Q587.3094 340.825 588.2469 340.825Q588.9344 340.825 589.45 341.10626Q589.98126 341.3875 590.325 341.91876Q590.66876 342.4344 590.85626 343.1844Q591.04376 343.9344 591.04376 345.21564Q591.04376 346.73126 590.73126 347.65314Q590.4344 348.575 589.8094 349.09064Q589.2 349.59064 588.2469 349.59064Q587.0125 349.59064 586.29376 348.7Q585.45 347.6375 585.45 345.21564ZM586.52814 345.21564Q586.52814 347.325 587.02814 348.02814Q587.52814 348.73126 588.2469 348.73126Q588.98126 348.73126 589.46564 348.02814Q589.96564 347.325 589.96564 345.21564Q589.96564 343.09064 589.46564 342.40314Q588.98126 341.7 588.23126 341.7Q587.5125 341.7 587.075 342.3094Q586.52814 343.09064 586.52814 345.21564Z" fill-rule="nonzero"/><path fill="#4285f4" d="M222.0 56.916668C222.0 56.364384 222.44771 55.916668 223.0 55.916668L233.0 55.916668C233.55229 55.916668 234.0 56.364384 234.0 56.916668L234.0 66.916664C234.0 67.46895 233.55229 67.916664 233.0 67.916664L223.0 67.916664C222.44771 67.916664 222.0 67.46895 222.0 66.916664Z" fill-rule="nonzero"/><path fill="#1a1a1a" d="M242.375 64.05729L243.40625 63.90104Q243.5 64.52604 243.89062 64.854164Q244.29688 65.18229 245.03125 65.18229Q245.75 65.18229 246.09375 64.90104Q246.45312 64.604164 246.45312 64.197914Q246.45312 63.83854 246.14062 63.635414Q245.92188 63.49479 245.0625 63.27604Q243.90625 62.979164 243.45312 62.77604Q243.01562 62.55729 242.78125 62.18229Q242.54688 61.80729 242.54688 61.33854Q242.54688 60.93229 242.73438 60.572914Q242.92188 60.21354 243.25 59.979164Q243.5 59.80729 243.92188 59.68229Q244.34375 59.55729 244.84375 59.55729Q245.5625 59.55729 246.10938 59.77604Q246.67188 59.979164 246.9375 60.33854Q247.20312 60.697914 247.29688 61.291664L246.26562 61.43229Q246.20312 60.96354 245.85938 60.697914Q245.53125 60.416664 244.90625 60.416664Q244.1875 60.416664 243.875 60.666664Q243.5625 60.90104 243.5625 61.229164Q243.5625 61.43229 243.6875 61.58854Q243.82812 61.760414 244.09375 61.86979Q244.25 61.93229 245.03125 62.135414Q246.15625 62.447914 246.59375 62.635414Q247.03125 62.822914 247.28125 63.18229Q247.53125 63.541664 247.53125 64.08854Q247.53125 64.61979 247.21875 65.08854Q246.92188 65.541664 246.34375 65.80729Q245.76562 66.05729 245.03125 66.05729Q243.8125 66.05729 243.17188 65.55729Q242.54688 65.041664 242.375 64.05729ZM248.79688 58.541664L248.79688 57.322914L249.85938 57.322914L249.85938 58.541664L248.79688 58.541664ZM248.79688 65.916664L248.79688 59.697914L249.85938 59.697914L249.85938 65.916664L248.79688 65.916664ZM251.59375 66.43229L252.625 66.58854Q252.6875 67.05729 252.98438 67.27604Q253.375 67.572914 254.04688 67.572914Q254.78125 67.572914 255.17188 67.27604Q255.57812 66.979164 255.71875 66.46354Q255.8125 66.135414 255.79688 65.104164Q255.10938 65.916664 254.07812 65.916664Q252.79688 65.916664 252.09375 64.99479Q251.39062 64.05729 251.39062 62.77604Q251.39062 61.885414 251.70312 61.135414Q252.03125 60.36979 252.64062 59.96354Q253.25 59.55729 254.07812 59.55729Q255.1875 59.55729 255.90625 60.447914L255.90625 59.697914L256.875 59.697914L256.875 65.072914Q256.875 66.52604 256.57812 67.135414Q256.28125 67.74479 255.64062 68.08854Q255.0 68.447914 254.0625 68.447914Q252.95312 68.447914 252.26562 67.947914Q251.57812 67.447914 251.59375 66.43229ZM252.46875 62.697914Q252.46875 63.916664 252.95312 64.479164Q253.4375 65.041664 254.17188 65.041664Q254.90625 65.041664 255.39062 64.479164Q255.89062 63.916664 255.89062 62.729164Q255.89062 61.58854 255.375 61.010414Q254.875 60.43229 254.15625 60.43229Q253.45312 60.43229 252.95312 61.010414Q252.46875 61.572914 252.46875 62.697914ZM258.79688 65.916664L258.79688 59.697914L259.73438 59.697914L259.73438 60.572914Q260.42188 59.55729 261.71875 59.55729Q262.28125 59.55729 262.75 59.760414Q263.23438 59.96354 263.46875 60.291664Q263.70312 60.61979 263.79688 61.05729Q263.84375 61.354164 263.84375 62.08854L263.84375 65.916664L262.79688 65.916664L262.79688 62.135414Q262.79688 61.479164 262.67188 61.166664Q262.54688 60.854164 262.23438 60.666664Q261.92188 60.46354 261.5 60.46354Q260.82812 60.46354 260.32812 60.90104Q259.84375 61.322914 259.84375 62.510414L259.84375 65.916664L258.79688 65.916664ZM270.8125 68.447914Q269.9375 67.33854 269.32812 65.86979Q268.73438 64.385414 268.73438 62.80729Q268.73438 61.416664 269.17188 60.135414Q269.70312 58.65104 270.8125 57.18229L271.5625 57.18229Q270.85938 58.40104 270.625 58.916664Q270.26562 59.729164 270.0625 60.604164Q269.8125 61.697914 269.8125 62.80729Q269.8125 65.635414 271.5625 68.447914L270.8125 68.447914ZM277.96875 59.697914L277.96875 65.916664L277.01562 65.916664L277.01562 65.18229Q276.71875 65.65104 276.42188 65.822914Q276.01562 66.05729 275.46875 66.05729Q274.98438 66.05729 274.60938 65.86979Q274.32812 65.729164 273.98438 65.291664L273.98438 68.30729L272.9375 68.30729L272.9375 59.697914L273.98438 59.697914L273.98438 62.322914Q273.98438 63.760414 274.125 64.197914Q274.28125 64.61979 274.625 64.86979Q274.96875 65.104164 275.42188 65.104164Q275.89062 65.104164 276.25 64.854164Q276.625 64.58854 276.76562 64.18229Q276.92188 63.77604 276.92188 62.354164L276.92188 59.697914L277.96875 59.697914ZM279.375 64.05729L280.40625 63.90104Q280.5 64.52604 280.89062 64.854164Q281.29688 65.18229 282.03125 65.18229Q282.75 65.18229 283.09375 64.90104Q283.45312 64.604164 283.45312 64.197914Q283.45312 63.83854 283.14062 63.635414Q282.92188 63.49479 282.0625 63.27604Q280.90625 62.979164 280.45312 62.77604Q280.01562 62.55729 279.78125 62.18229Q279.54688 61.80729 279.54688 61.33854Q279.54688 60.93229 279.73438 60.572914Q279.92188 60.21354 280.25 59.979164Q280.5 59.80729 280.92188 59.68229Q281.34375 59.55729 281.84375 59.55729Q282.5625 59.55729 283.10938 59.77604Q283.67188 59.979164 283.9375 60.33854Q284.20312 60.697914 284.29688 61.291664L283.26562 61.43229Q283.20312 60.96354 282.85938 60.697914Q282.53125 60.416664 281.90625 60.416664Q281.1875 60.416664 280.875 60.666664Q280.5625 60.90104 280.5625 61.229164Q280.5625 61.43229 280.6875 61.58854Q280.82812 61.760414 281.09375 61.86979Q281.25 61.93229 282.03125 62.135414Q283.15625 62.447914 283.59375 62.635414Q284.03125 62.822914 284.28125 63.18229Q284.53125 63.541664 284.53125 64.08854Q284.53125 64.61979 284.21875 65.08854Q283.92188 65.541664 283.34375 65.80729Q282.76562 66.05729 282.03125 66.05729Q280.8125 66.05729 280.17188 65.55729Q279.54688 65.041664 279.375 64.05729ZM286.48438 68.447914L285.73438 68.447914Q287.48438 65.635414 287.48438 62.80729Q287.48438 61.71354 287.23438 60.61979Q287.03125 59.74479 286.67188 58.93229Q286.4375 58.416664 285.73438 57.18229L286.48438 57.18229Q287.57812 58.65104 288.10938 60.135414Q288.5625 61.416664 288.5625 62.80729Q288.5625 64.385414 287.95312 65.86979Q287.34375 67.33854 286.48438 68.447914Z" fill-rule="nonzero"/><path fill="#ea4335" d="M305.0 56.916668C305.0 56.364384 305.44772 55.916668 306.0 55.916668L316.0 55.916668C316.55228 55.916668 317.0 56.364384 317.0 56.916668L317.0 66.916664C317.0 67.46895 316.55228 67.916664 316.0 67.916664L306.0 67.916664C305.44772 67.916664 305.0 67.46895 305.0 66.916664Z" fill-rule="nonzero"/><path fill="#1a1a1a" d="M327.51562 65.916664L325.15625 59.697914L326.26562 59.697914L327.60938 63.416664Q327.8125 64.02604 328.0 64.666664Q328.14062 64.18229 328.39062 63.49479L329.78125 59.697914L330.85938 59.697914L328.5 65.916664L327.51562 65.916664ZM336.04688 63.916664L337.14062 64.041664Q336.89062 64.99479 336.1875 65.52604Q335.48438 66.05729 334.40625 66.05729Q333.04688 66.05729 332.23438 65.21354Q331.4375 64.36979 331.4375 62.854164Q331.4375 61.291664 332.25 60.43229Q333.0625 59.55729 334.34375 59.55729Q335.59375 59.55729 336.375 60.40104Q337.17188 61.24479 337.17188 62.791664Q337.17188 62.885414 337.17188 63.072914L332.53125 63.072914Q332.59375 64.104164 333.10938 64.65104Q333.625 65.18229 334.40625 65.18229Q334.98438 65.18229 335.39062 64.885414Q335.8125 64.572914 336.04688 63.916664ZM332.59375 62.21354L336.0625 62.21354Q336.0 61.416664 335.67188 61.02604Q335.15625 60.416664 334.35938 60.416664Q333.625 60.416664 333.125 60.90104Q332.64062 61.385414 332.59375 62.21354ZM338.78125 65.916664L338.78125 59.697914L339.73438 59.697914L339.73438 60.635414Q340.09375 59.979164 340.39062 59.77604Q340.70312 59.55729 341.07812 59.55729Q341.60938 59.55729 342.15625 59.885414L341.79688 60.86979Q341.40625 60.635414 341.03125 60.635414Q340.67188 60.635414 340.39062 60.854164Q340.125 61.05729 340.01562 61.43229Q339.82812 61.99479 339.82812 62.65104L339.82812 65.916664L338.78125 65.916664ZM342.79688 58.541664L342.79688 57.322914L343.85938 57.322914L343.85938 58.541664L342.79688 58.541664ZM342.79688 65.916664L342.79688 59.697914L343.85938 59.697914L343.85938 65.916664L342.79688 65.916664ZM346.04688 65.916664L346.04688 60.510414L345.10938 60.510414L345.10938 59.697914L346.04688 59.697914L346.04688 59.02604Q346.04688 58.40104 346.15625 58.104164Q346.3125 57.68229 346.6875 57.43229Q347.07812 57.18229 347.76562 57.18229Q348.21875 57.18229 348.75 57.291664L348.59375 58.197914Q348.26562 58.15104 347.96875 58.15104Q347.48438 58.15104 347.28125 58.354164Q347.09375 58.55729 347.09375 59.11979L347.09375 59.697914L348.3125 59.697914L348.3125 60.510414L347.09375 60.510414L347.09375 65.916664L346.04688 65.916664ZM348.75 68.30729L348.625 67.322914Q348.96875 67.416664 349.23438 67.416664Q349.57812 67.416664 349.78125 67.291664Q350.0 67.18229 350.14062 66.979164Q350.23438 66.80729 350.46875 66.18229Q350.48438 66.104164 350.5625 65.93229L348.1875 59.697914L349.32812 59.697914L350.625 63.291664Q350.875 63.979164 351.07812 64.74479Q351.26562 64.010414 351.51562 63.322914L352.84375 59.697914L353.89062 59.697914L351.53125 66.02604Q351.14062 67.041664 350.9375 67.43229Q350.65625 67.96354 350.28125 68.197914Q349.92188 68.447914 349.42188 68.447914Q349.125 68.447914 348.75 68.30729ZM359.8125 68.447914Q358.9375 67.33854 358.32812 65.86979Q357.73438 64.385414 357.73438 62.80729Q357.73438 61.416664 358.17188 60.135414Q358.70312 58.65104 359.8125 57.18229L360.5625 57.18229Q359.85938 58.40104 359.625 58.916664Q359.26562 59.729164 359.0625 60.604164Q358.8125 61.697914 358.8125 62.80729Q358.8125 65.635414 360.5625 68.447914L359.8125 68.447914ZM366.96875 59.697914L366.96875 65.916664L366.01562 65.916664L366.01562 65.18229Q365.71875 65.65104 365.42188 65.822914Q365.01562 66.05729 364.46875 66.05729Q363.98438 66.05729 363.60938 65.86979Q363.32812 65.729164 362.98438 65.291664L362.98438 68.30729L361.9375 68.30729L361.9375 59.697914L362.98438 59.697914L362.98438 62.322914Q362.98438 63.760414 363.125 64.197914Q363.28125 64.61979 363.625 64.86979Q363.96875 65.104164 364.42188 65.104164Q364.89062 65.104164 365.25 64.854164Q365.625 64.58854 365.76562 64.18229Q365.92188 63.77604 365.92188 62.354164L365.92188 59.697914L366.96875 59.697914ZM368.375 64.05729L369.40625 63.90104Q369.5 64.52604 369.89062 64.854164Q370.29688 65.18229 371.03125 65.18229Q371.75 65.18229 372.09375 64.90104Q372.45312 64.604164 372.45312 64.197914Q372.45312 63.83854 372.14062 63.635414Q371.92188 63.49479 371.0625 63.27604Q369.90625 62.979164 369.45312 62.77604Q369.01562 62.55729 368.78125 62.18229Q368.54688 61.80729 368.54688 61.33854Q368.54688 60.93229 368.73438 60.572914Q368.92188 60.21354 369.25 59.979164Q369.5 59.80729 369.92188 59.68229Q370.34375 59.55729 370.84375 59.55729Q371.5625 59.55729 372.10938 59.77604Q372.67188 59.979164 372.9375 60.33854Q373.20312 60.697914 373.29688 61.291664L372.26562 61.43229Q372.20312 60.96354 371.85938 60.697914Q371.53125 60.416664 370.90625 60.416664Q370.1875 60.416664 369.875 60.666664Q369.5625 60.90104 369.5625 61.229164Q369.5625 61.43229 369.6875 61.58854Q369.82812 61.760414 370.09375 61.86979Q370.25 61.93229 371.03125 62.135414Q372.15625 62.447914 372.59375 62.635414Q373.03125 62.822914 373.28125 63.18229Q373.53125 63.541664 373.53125 64.08854Q373.53125 64.61979 373.21875 65.08854Q372.92188 65.541664 372.34375 65.80729Q371.76562 66.05729 371.03125 66.05729Q369.8125 66.05729 369.17188 65.55729Q368.54688 65.041664 368.375 64.05729ZM375.48438 68.447914L374.73438 68.447914Q376.48438 65.635414 376.48438 62.80729Q376.48438 61.71354 376.23438 60.61979Q376.03125 59.74479 375.67188 58.93229Q375.4375 58.416664 374.73438 57.18229L375.48438 57.18229Q376.57812 58.65104 377.10938 60.135414Q377.5625 61.416664 377.5625 62.80729Q377.5625 64.385414 376.95312 65.86979Q376.34375 67.33854 375.48438 68.447914Z" fill-rule="nonzero"/><path fill="#757575" d="M20.128124 37.55L20.128124 23.2375L30.4875 23.2375L30.4875 24.925L22.034374 24.925L22.034374 29.3L29.940624 29.3L29.940624 30.9875L22.034374 30.9875L22.034374 35.8625L30.815624 35.8625L30.815624 37.55L20.128124 37.55ZM43.315624 32.534374L45.20625 33.003124Q44.6125 35.346874 43.065624 36.58125Q41.51875 37.8 39.26875 37.8Q36.95625 37.8 35.503124 36.8625Q34.065624 35.909374 33.3 34.128124Q32.55 32.33125 32.55 30.284374Q32.55 28.05 33.39375 26.39375Q34.253124 24.721874 35.83125 23.8625Q37.409374 22.9875 39.3 22.9875Q41.45625 22.9875 42.909374 24.08125Q44.378124 25.175 44.95625 27.159374L43.096874 27.596874Q42.596874 26.034374 41.64375 25.33125Q40.70625 24.6125 39.26875 24.6125Q37.6125 24.6125 36.503124 25.409374Q35.39375 26.190624 34.940624 27.534374Q34.503124 28.8625 34.503124 30.26875Q34.503124 32.096874 35.034374 33.471874Q35.565624 34.83125 36.690624 35.503124Q37.815624 36.175 39.1125 36.175Q40.70625 36.175 41.815624 35.253124Q42.925 34.33125 43.315624 32.534374ZM47.096874 37.55L47.096874 23.2375L52.01875 23.2375Q53.690624 23.2375 54.58125 23.440624Q55.8 23.721874 56.675 24.45625Q57.8 25.425 58.3625 26.909374Q58.925 28.39375 58.925 30.315624Q58.925 31.940624 58.55 33.20625Q58.175 34.45625 57.565624 35.284374Q56.971874 36.1125 56.26875 36.596874Q55.565624 37.065624 54.565624 37.315624Q53.565624 37.55 52.253124 37.55L47.096874 37.55ZM48.9875 35.8625L52.05 35.8625Q53.45625 35.8625 54.253124 35.596874Q55.065624 35.33125 55.55 34.846874Q56.221874 34.175 56.596874 33.05Q56.971874 31.909374 56.971874 30.284374Q56.971874 28.034374 56.2375 26.83125Q55.503124 25.628124 54.440624 25.221874Q53.690624 24.925 52.003124 24.925L48.9875 24.925L48.9875 35.8625ZM60.45625 32.95625L62.2375 32.8Q62.3625 33.8625 62.815624 34.55Q63.284374 35.2375 64.25313 35.675Q65.2375 36.096874 66.47188 36.096874Q67.55 36.096874 68.37813 35.784374Q69.20625 35.45625 69.6125 34.89375Q70.01875 34.33125 70.01875 33.659374Q70.01875 32.9875 69.62813 32.4875Q69.2375 31.9875 68.34688 31.64375Q67.76875 31.409374 65.78438 30.940624Q63.815624 30.471874 63.034374 30.05Q62.003124 29.51875 61.503124 28.721874Q61.003124 27.925 61.003124 26.940624Q61.003124 25.846874 61.6125 24.909374Q62.221874 23.971874 63.409374 23.4875Q64.59688 22.9875 66.03438 22.9875Q67.62813 22.9875 68.84688 23.503124Q70.06563 24.01875 70.70625 25.01875Q71.3625 26.003124 71.40938 27.26875L69.59688 27.409374Q69.45625 26.05 68.6125 25.3625Q67.76875 24.659374 66.1125 24.659374Q64.39375 24.659374 63.596874 25.3Q62.815624 25.925 62.815624 26.8Q62.815624 27.58125 63.378124 28.08125Q63.925 28.58125 66.2375 29.096874Q68.55 29.6125 69.40938 30.003124Q70.65938 30.58125 71.25313 31.471874Q71.84688 32.346874 71.84688 33.503124Q71.84688 34.64375 71.19063 35.659374Q70.53438 36.675 69.3 37.2375Q68.08125 37.8 66.55 37.8Q64.6125 37.8 63.3 37.2375Q61.9875 36.659374 61.2375 35.51875Q60.4875 34.378124 60.45625 32.95625ZM72.51875 37.55L78.01875 23.2375L80.06563 23.2375L85.925 37.55L83.76875 37.55L82.09688 33.20625L76.1125 33.20625L74.53438 37.55L72.51875 37.55ZM76.65938 31.675L81.50313 31.675L80.01875 27.70625Q79.33125 25.89375 79.00313 24.7375Q78.72188 26.1125 78.22188 27.471874L76.65938 31.675ZM92.15938 34.45625L93.90938 34.175Q94.05 35.221874 94.72188 35.784374Q95.39375 36.33125 96.59688 36.33125Q97.8 36.33125 98.37813 35.846874Q98.97188 35.346874 98.97188 34.690624Q98.97188 34.096874 98.45625 33.753124Q98.09688 33.51875 96.65938 33.159374Q94.72188 32.659374 93.97188 32.315624Q93.2375 31.95625 92.84688 31.33125Q92.45625 30.690624 92.45625 29.925Q92.45625 29.2375 92.76875 28.64375Q93.09688 28.05 93.64375 27.659374Q94.05 27.3625 94.75313 27.159374Q95.47188 26.940624 96.28438 26.940624Q97.50313 26.940624 98.425 27.3Q99.34688 27.64375 99.78438 28.253124Q100.22188 28.846874 100.39375 29.846874L98.675 30.08125Q98.55 29.284374 97.9875 28.846874Q97.425 28.39375 96.40938 28.39375Q95.19063 28.39375 94.675 28.8Q94.15938 29.190624 94.15938 29.721874Q94.15938 30.065624 94.37813 30.346874Q94.58125 30.628124 95.05 30.815624Q95.31563 30.909374 96.59688 31.253124Q98.47188 31.753124 99.20625 32.08125Q99.94063 32.39375 100.3625 33.003124Q100.78438 33.596874 100.78438 34.503124Q100.78438 35.378124 100.26875 36.159374Q99.75313 36.940624 98.78438 37.3625Q97.81563 37.784374 96.59688 37.784374Q94.58125 37.784374 93.51875 36.940624Q92.45625 36.096874 92.15938 34.45625ZM102.87813 25.253124L102.87813 23.2375L104.64375 23.2375L104.64375 25.253124L102.87813 25.253124ZM102.87813 37.55L102.87813 27.175L104.64375 27.175L104.64375 37.55L102.87813 37.55ZM106.55 38.409374L108.25313 38.659374Q108.3625 39.45625 108.84688 39.815624Q109.50313 40.3 110.64375 40.3Q111.8625 40.3 112.51875 39.815624Q113.19063 39.33125 113.425 38.45625Q113.56563 37.909374 113.55 36.190624Q112.39375 37.55 110.675 37.55Q108.53438 37.55 107.3625 36.003124Q106.19063 34.45625 106.19063 32.3Q106.19063 30.815624 106.72188 29.565624Q107.26875 28.315624 108.28438 27.628124Q109.31563 26.940624 110.69063 26.940624Q112.51875 26.940624 113.72188 28.425L113.72188 27.175L115.33125 27.175L115.33125 36.14375Q115.33125 38.565624 114.83125 39.565624Q114.34688 40.58125 113.26875 41.159374Q112.20625 41.753124 110.64375 41.753124Q108.8 41.753124 107.64375 40.925Q106.50313 40.096874 106.55 38.409374ZM108.00313 32.175Q108.00313 34.221874 108.81563 35.159374Q109.62813 36.096874 110.84688 36.096874Q112.05 36.096874 112.8625 35.159374Q113.69063 34.221874 113.69063 32.2375Q113.69063 30.33125 112.84688 29.3625Q112.00313 28.39375 110.81563 28.39375Q109.64375 28.39375 108.81563 29.346874Q108.00313 30.3 108.00313 32.175ZM117.8625 37.55L117.8625 27.175L119.45625 27.175L119.45625 28.659374Q120.59688 26.940624 122.75313 26.940624Q123.69063 26.940624 124.47188 27.284374Q125.26875 27.6125 125.65938 28.159374Q126.05 28.70625 126.20625 29.45625Q126.3 29.95625 126.3 31.175L126.3 37.55L124.53438 37.55L124.53438 31.2375Q124.53438 30.159374 124.33125 29.628124Q124.12813 29.096874 123.59688 28.784374Q123.08125 28.471874 122.37813 28.471874Q121.25313 28.471874 120.44063 29.190624Q119.62813 29.89375 119.62813 31.878124L119.62813 37.55L117.8625 37.55ZM128.87813 25.253124L128.87813 23.2375L130.64375 23.2375L130.64375 25.253124L128.87813 25.253124ZM128.87813 37.55L128.87813 27.175L130.64375 27.175L130.64375 37.55L128.87813 37.55ZM132.8625 37.55L132.8625 27.175L134.45625 27.175L134.45625 28.659374Q135.59688 26.940624 137.75313 26.940624Q138.69063 26.940624 139.47188 27.284374Q140.26875 27.6125 140.65938 28.159374Q141.05 28.70625 141.20625 29.45625Q141.3 29.95625 141.3 31.175L141.3 37.55L139.53438 37.55L139.53438 31.2375Q139.53438 30.159374 139.33125 29.628124Q139.12813 29.096874 138.59688 28.784374Q138.08125 28.471874 137.37813 28.471874Q136.25313 28.471874 135.44063 29.190624Q134.62813 29.89375 134.62813 31.878124L134.62813 37.55L132.8625 37.55ZM143.55 38.409374L145.25313 38.659374Q145.3625 39.45625 145.84688 39.815624Q146.50313 40.3 147.64375 40.3Q148.8625 40.3 149.51875 39.815624Q150.19063 39.33125 150.425 38.45625Q150.56563 37.909374 150.55 36.190624Q149.39375 37.55 147.675 37.55Q145.53438 37.55 144.3625 36.003124Q143.19063 34.45625 143.19063 32.3Q143.19063 30.815624 143.72188 29.565624Q144.26875 28.315624 145.28438 27.628124Q146.31563 26.940624 147.69063 26.940624Q149.51875 26.940624 150.72188 28.425L150.72188 27.175L152.33125 27.175L152.33125 36.14375Q152.33125 38.565624 151.83125 39.565624Q151.34688 40.58125 150.26875 41.159374Q149.20625 41.753124 147.64375 41.753124Q145.8 41.753124 144.64375 40.925Q143.50313 40.096874 143.55 38.409374ZM145.00313 32.175Q145.00313 34.221874 145.81563 35.159374Q146.62813 36.096874 147.84688 36.096874Q149.05 36.096874 149.8625 35.159374Q150.69063 34.221874 150.69063 32.2375Q150.69063 30.33125 149.84688 29.3625Q149.00313 28.39375 147.81563 28.39375Q146.64375 28.39375 145.81563 29.346874Q145.00313 30.3 145.00313 32.175ZM153.55 37.8L157.70625 22.9875L159.1125 22.9875L154.97188 37.8L153.55 37.8ZM163.75313 37.55L159.8 27.175L161.65938 27.175L163.89375 33.39375Q164.25313 34.39375 164.55 35.471874Q164.78438 34.659374 165.20625 33.503124L167.50313 27.175L169.31563 27.175L165.39375 37.55L163.75313 37.55ZM177.97188 34.20625L179.78438 34.440624Q179.3625 36.01875 178.19063 36.909374Q177.03438 37.784374 175.22188 37.784374Q172.95625 37.784374 171.6125 36.39375Q170.28438 34.9875 170.28438 32.45625Q170.28438 29.83125 171.62813 28.39375Q172.97188 26.940624 175.12813 26.940624Q177.20625 26.940624 178.51875 28.3625Q179.84688 29.76875 179.84688 32.346874Q179.84688 32.503124 179.83125 32.815624L172.09688 32.815624Q172.19063 34.51875 173.06563 35.425Q173.94063 36.33125 175.2375 36.33125Q176.20625 36.33125 176.87813 35.83125Q177.56563 35.315624 177.97188 34.20625ZM172.19063 31.3625L177.9875 31.3625Q177.87813 30.065624 177.33125 29.409374Q176.4875 28.39375 175.14375 28.39375Q173.94063 28.39375 173.1125 29.20625Q172.28438 30.003124 172.19063 31.3625ZM181.84688 37.55L181.84688 27.175L183.425 27.175L183.425 28.753124Q184.03438 27.64375 184.55 27.3Q185.06563 26.940624 185.675 26.940624Q186.56563 26.940624 187.4875 27.503124L186.87813 29.14375Q186.2375 28.753124 185.59688 28.753124Q185.01875 28.753124 184.55 29.1125Q184.09688 29.45625 183.89375 30.065624Q183.6125 31.003124 183.6125 32.1125L183.6125 37.55L181.84688 37.55ZM188.87813 25.253124L188.87813 23.2375L190.64375 23.2375L190.64375 25.253124L188.87813 25.253124ZM188.87813 37.55L188.87813 27.175L190.64375 27.175L190.64375 37.55L188.87813 37.55ZM193.28438 37.55L193.28438 28.55L191.7375 28.55L191.7375 27.175L193.28438 27.175L193.28438 26.08125Q193.28438 25.034374 193.47188 24.51875Q193.72188 23.83125 194.3625 23.409374Q195.00313 22.9875 196.15938 22.9875Q196.90938 22.9875 197.8 23.159374L197.53438 24.690624Q196.9875 24.596874 196.50313 24.596874Q195.70625 24.596874 195.3625 24.940624Q195.03438 25.284374 195.03438 26.221874L195.03438 27.175L197.06563 27.175L197.06563 28.55L195.03438 28.55L195.03438 37.55L193.28438 37.55ZM198.87813 25.253124L198.87813 23.2375L200.64375 23.2375L200.64375 25.253124L198.87813 25.253124ZM198.87813 37.55L198.87813 27.175L200.64375 27.175L200.64375 37.55L198.87813 37.55ZM209.64375 33.753124L211.3625 33.971874Q211.08125 35.76875 209.90938 36.784374Q208.75313 37.784374 207.05 37.784374Q204.925 37.784374 203.62813 36.39375Q202.33125 35.003124 202.33125 32.409374Q202.33125 30.721874 202.87813 29.471874Q203.44063 28.20625 204.58125 27.58125Q205.72188 26.940624 207.06563 26.940624Q208.75313 26.940624 209.81563 27.8Q210.89375 28.659374 211.20625 30.221874L209.4875 30.4875Q209.25313 29.440624 208.62813 28.925Q208.00313 28.39375 207.12813 28.39375Q205.8 28.39375 204.97188 29.346874Q204.14375 30.3 204.14375 32.346874Q204.14375 34.440624 204.94063 35.39375Q205.7375 36.33125 207.03438 36.33125Q208.06563 36.33125 208.75313 35.70625Q209.45625 35.065624 209.64375 33.753124ZM219.64375 36.26875Q218.65938 37.096874 217.75313 37.440624Q216.84688 37.784374 215.81563 37.784374Q214.1125 37.784374 213.19063 36.95625Q212.26875 36.1125 212.26875 34.815624Q212.26875 34.05 212.6125 33.425Q212.97188 32.8 213.53438 32.425Q214.09688 32.034374 214.8 31.83125Q215.31563 31.70625 216.3625 31.565624Q218.4875 31.315624 219.4875 30.971874Q219.50313 30.6125 219.50313 30.503124Q219.50313 29.440624 219.00313 28.9875Q218.33125 28.39375 217.00313 28.39375Q215.75313 28.39375 215.15938 28.83125Q214.58125 29.26875 214.3 30.378124L212.58125 30.14375Q212.81563 29.034374 213.34688 28.3625Q213.87813 27.675 214.89375 27.315624Q215.90938 26.940624 217.25313 26.940624Q218.58125 26.940624 219.40938 27.253124Q220.2375 27.565624 220.62813 28.05Q221.01875 28.51875 221.175 29.2375Q221.26875 29.690624 221.26875 30.8625L221.26875 33.20625Q221.26875 35.659374 221.37813 36.315624Q221.4875 36.95625 221.83125 37.55L219.9875 37.55Q219.72188 37.003124 219.64375 36.26875ZM219.4875 32.346874Q218.53438 32.7375 216.6125 33.003124Q215.53438 33.159374 215.08125 33.3625Q214.64375 33.55 214.39375 33.925Q214.14375 34.3 214.14375 34.76875Q214.14375 35.471874 214.675 35.940624Q215.20625 36.409374 216.2375 36.409374Q217.25313 36.409374 218.03438 35.971874Q218.83125 35.51875 219.20625 34.753124Q219.4875 34.14375 219.4875 32.9875L219.4875 32.346874ZM227.70625 35.971874L227.95625 37.534374Q227.22188 37.690624 226.62813 37.690624Q225.675 37.690624 225.14375 37.39375Q224.62813 37.08125 224.40938 36.596874Q224.19063 36.096874 224.19063 34.51875L224.19063 28.55L222.90938 28.55L222.90938 27.175L224.19063 27.175L224.19063 24.6125L225.94063 23.55L225.94063 27.175L227.70625 27.175L227.70625 28.55L225.94063 28.55L225.94063 34.6125Q225.94063 35.3625 226.03438 35.58125Q226.12813 35.784374 226.33125 35.925Q226.55 36.05 226.94063 36.05Q227.22188 36.05 227.70625 35.971874ZM229.87813 25.253124L229.87813 23.2375L231.64375 23.2375L231.64375 25.253124L229.87813 25.253124ZM229.87813 37.55L229.87813 27.175L231.64375 27.175L231.64375 37.55L229.87813 37.55ZM233.22188 32.3625Q233.22188 29.4875 234.81563 28.096874Q236.15938 26.940624 238.08125 26.940624Q240.22188 26.940624 241.56563 28.346874Q242.925 29.753124 242.925 32.221874Q242.925 34.221874 242.33125 35.378124Q241.7375 36.51875 240.58125 37.159374Q239.44063 37.784374 238.08125 37.784374Q235.89375 37.784374 234.55 36.39375Q233.22188 34.9875 233.22188 32.3625ZM235.01875 32.3625Q235.01875 34.3625 235.87813 35.346874Q236.75313 36.33125 238.08125 36.33125Q239.39375 36.33125 240.25313 35.346874Q241.12813 34.346874 241.12813 32.3Q241.12813 30.378124 240.25313 29.39375Q239.37813 28.39375 238.08125 28.39375Q236.75313 28.39375 235.87813 29.39375Q235.01875 30.378124 235.01875 32.3625ZM244.8625 37.55L244.8625 27.175L246.45625 27.175L246.45625 28.659374Q247.59688 26.940624 249.75313 26.940624Q250.69063 26.940624 251.47188 27.284374Q252.26875 27.6125 252.65938 28.159374Q253.05 28.70625 253.20625 29.45625Q253.3 29.95625 253.3 31.175L253.3 37.55L251.53438 37.55L251.53438 31.2375Q251.53438 30.159374 251.33125 29.628124Q251.12813 29.096874 250.59688 28.784374Q250.08125 28.471874 249.37813 28.471874Q248.25313 28.471874 247.44063 29.190624Q246.62813 29.89375 246.62813 31.878124L246.62813 37.55L244.8625 37.55ZM265.70624 35.971874L265.95624 37.534374Q265.22186 37.690624 264.6281 37.690624Q263.675 37.690624 263.14374 37.39375Q262.6281 37.08125 262.40936 36.596874Q262.1906 36.096874 262.1906 34.51875L262.1906 28.55L260.90936 28.55L260.90936 27.175L262.1906 27.175L262.1906 24.6125L263.9406 23.55L263.9406 27.175L265.70624 27.175L265.70624 28.55L263.9406 28.55L263.9406 34.6125Q263.9406 35.3625 264.03436 35.58125Q264.1281 35.784374 264.33124 35.925Q264.55 36.05 264.9406 36.05Q265.22186 36.05 265.70624 35.971874ZM267.8781 25.253124L267.8781 23.2375L269.64374 23.2375L269.64374 25.253124L267.8781 25.253124ZM267.8781 37.55L267.8781 27.175L269.64374 27.175L269.64374 37.55L267.8781 37.55ZM271.8625 37.55L271.8625 27.175L273.4406 27.175L273.4406 28.628124Q273.925 27.878124 274.7375 27.409374Q275.55 26.940624 276.58124 26.940624Q277.7375 26.940624 278.47186 27.425Q279.20624 27.89375 279.51874 28.753124Q280.7531 26.940624 282.72186 26.940624Q284.26874 26.940624 285.09686 27.8Q285.925 28.659374 285.925 30.425L285.925 37.55L284.175 37.55L284.175 31.01875Q284.175 29.95625 284.0031 29.503124Q283.83124 29.034374 283.3781 28.753124Q282.9406 28.471874 282.33124 28.471874Q281.2375 28.471874 280.5031 29.20625Q279.78436 29.925 279.78436 31.51875L279.78436 37.55L278.03436 37.55L278.03436 30.815624Q278.03436 29.64375 277.59686 29.065624Q277.175 28.471874 276.1906 28.471874Q275.45624 28.471874 274.8156 28.8625Q274.1906 29.253124 273.90936 30.003124Q273.6281 30.753124 273.6281 32.175L273.6281 37.55L271.8625 37.55ZM295.97186 34.20625L297.78436 34.440624Q297.3625 36.01875 296.1906 36.909374Q295.03436 37.784374 293.22186 37.784374Q290.95624 37.784374 289.6125 36.39375Q288.28436 34.9875 288.28436 32.45625Q288.28436 29.83125 289.6281 28.39375Q290.97186 26.940624 293.1281 26.940624Q295.20624 26.940624 296.51874 28.3625Q297.84686 29.76875 297.84686 32.346874Q297.84686 32.503124 297.83124 32.815624L290.09686 32.815624Q290.1906 34.51875 291.0656 35.425Q291.9406 36.33125 293.2375 36.33125Q294.20624 36.33125 294.8781 35.83125Q295.5656 35.315624 295.97186 34.20625ZM290.1906 31.3625L295.9875 31.3625Q295.8781 30.065624 295.33124 29.409374Q294.4875 28.39375 293.14374 28.39375Q291.9406 28.39375 291.1125 29.20625Q290.28436 30.003124 290.1906 31.3625ZM309.22186 41.753124Q307.76874 39.925 306.76874 37.471874Q305.76874 35.003124 305.76874 32.3625Q305.76874 30.034374 306.51874 27.909374Q307.39374 25.440624 309.22186 22.9875L310.4875 22.9875Q309.3 25.01875 308.925 25.89375Q308.33124 27.2375 307.9875 28.70625Q307.5656 30.534374 307.5656 32.378124Q307.5656 37.065624 310.4875 41.753124L309.22186 41.753124ZM312.15936 34.45625L313.90936 34.175Q314.05 35.221874 314.72186 35.784374Q315.39374 36.33125 316.59686 36.33125Q317.8 36.33125 318.3781 35.846874Q318.97186 35.346874 318.97186 34.690624Q318.97186 34.096874 318.45624 33.753124Q318.09686 33.51875 316.65936 33.159374Q314.72186 32.659374 313.97186 32.315624Q313.2375 31.95625 312.84686 31.33125Q312.45624 30.690624 312.45624 29.925Q312.45624 29.2375 312.76874 28.64375Q313.09686 28.05 313.64374 27.659374Q314.05 27.3625 314.7531 27.159374Q315.47186 26.940624 316.28436 26.940624Q317.5031 26.940624 318.425 27.3Q319.34686 27.64375 319.78436 28.253124Q320.22186 28.846874 320.39374 29.846874L318.675 30.08125Q318.55 29.284374 317.9875 28.846874Q317.425 28.39375 316.40936 28.39375Q315.1906 28.39375 314.675 28.8Q314.15936 29.190624 314.15936 29.721874Q314.15936 30.065624 314.3781 30.346874Q314.58124 30.628124 315.05 30.815624Q315.3156 30.909374 316.59686 31.253124Q318.47186 31.753124 319.20624 32.08125Q319.9406 32.39375 320.3625 33.003124Q320.78436 33.596874 320.78436 34.503124Q320.78436 35.378124 320.26874 36.159374Q319.7531 36.940624 318.78436 37.3625Q317.8156 37.784374 316.59686 37.784374Q314.58124 37.784374 313.51874 36.940624Q312.45624 36.096874 312.15936 34.45625ZM322.8625 37.55L322.8625 23.2375L324.6281 23.2375L324.6281 28.3625Q325.8625 26.940624 327.7375 26.940624Q328.8781 26.940624 329.72186 27.39375Q330.58124 27.846874 330.9406 28.659374Q331.3156 29.45625 331.3156 30.971874L331.3156 37.55L329.5656 37.55L329.5656 30.971874Q329.5656 29.659374 328.9875 29.065624Q328.40936 28.45625 327.3781 28.45625Q326.59686 28.45625 325.89374 28.8625Q325.20624 29.26875 324.90936 29.971874Q324.6281 30.659374 324.6281 31.878124L324.6281 37.55L322.8625 37.55ZM333.22186 32.3625Q333.22186 29.4875 334.8156 28.096874Q336.15936 26.940624 338.08124 26.940624Q340.22186 26.940624 341.5656 28.346874Q342.925 29.753124 342.925 32.221874Q342.925 34.221874 342.33124 35.378124Q341.7375 36.51875 340.58124 37.159374Q339.4406 37.784374 338.08124 37.784374Q335.89374 37.784374 334.55 36.39375Q333.22186 34.9875 333.22186 32.3625ZM335.01874 32.3625Q335.01874 34.3625 335.8781 35.346874Q336.7531 36.33125 338.08124 36.33125Q339.39374 36.33125 340.2531 35.346874Q341.1281 34.346874 341.1281 32.3Q341.1281 30.378124 340.2531 29.39375Q339.3781 28.39375 338.08124 28.39375Q336.7531 28.39375 335.8781 29.39375Q335.01874 30.378124 335.01874 32.3625ZM344.84686 37.55L344.84686 27.175L346.425 27.175L346.425 28.753124Q347.03436 27.64375 347.55 27.3Q348.0656 26.940624 348.675 26.940624Q349.5656 26.940624 350.4875 27.503124L349.8781 29.14375Q349.2375 28.753124 348.59686 28.753124Q348.01874 28.753124 347.55 29.1125Q347.09686 29.45625 346.89374 30.065624Q346.6125 31.003124 346.6125 32.1125L346.6125 37.55L344.84686 37.55ZM355.70624 35.971874L355.95624 37.534374Q355.22186 37.690624 354.6281 37.690624Q353.675 37.690624 353.14374 37.39375Q352.6281 37.08125 352.40936 36.596874Q352.1906 36.096874 352.1906 34.51875L352.1906 28.55L350.90936 28.55L350.90936 27.175L352.1906 27.175L352.1906 24.6125L353.9406 23.55L353.9406 27.175L355.70624 27.175L355.70624 28.55L353.9406 28.55L353.9406 34.6125Q353.9406 35.3625 354.03436 35.58125Q354.1281 35.784374 354.33124 35.925Q354.55 36.05 354.9406 36.05Q355.22186 36.05 355.70624 35.971874ZM364.97186 34.20625L366.78436 34.440624Q366.3625 36.01875 365.1906 36.909374Q364.03436 37.784374 362.22186 37.784374Q359.95624 37.784374 358.6125 36.39375Q357.28436 34.9875 357.28436 32.45625Q357.28436 29.83125 358.6281 28.39375Q359.97186 26.940624 362.1281 26.940624Q364.20624 26.940624 365.51874 28.3625Q366.84686 29.76875 366.84686 32.346874Q366.84686 32.503124 366.83124 32.815624L359.09686 32.815624Q359.1906 34.51875 360.0656 35.425Q360.9406 36.33125 362.2375 36.33125Q363.20624 36.33125 363.8781 35.83125Q364.5656 35.315624 364.97186 34.20625ZM359.1906 31.3625L364.9875 31.3625Q364.8781 30.065624 364.33124 29.409374Q363.4875 28.39375 362.14374 28.39375Q360.9406 28.39375 360.1125 29.20625Q359.28436 30.003124 359.1906 31.3625ZM368.84686 37.55L368.84686 27.175L370.425 27.175L370.425 28.753124Q371.03436 27.64375 371.55 27.3Q372.0656 26.940624 372.675 26.940624Q373.5656 26.940624 374.4875 27.503124L373.8781 29.14375Q373.2375 28.753124 372.59686 28.753124Q372.01874 28.753124 371.55 29.1125Q371.09686 29.45625 370.89374 30.065624Q370.6125 31.003124 370.6125 32.1125L370.6125 37.55L368.84686 37.55ZM381.8781 25.253124L381.8781 23.2375L383.64374 23.2375L383.64374 25.253124L381.8781 25.253124ZM381.8781 37.55L381.8781 27.175L383.64374 27.175L383.64374 37.55L381.8781 37.55ZM385.15936 34.45625L386.90936 34.175Q387.05 35.221874 387.72186 35.784374Q388.39374 36.33125 389.59686 36.33125Q390.8 36.33125 391.3781 35.846874Q391.97186 35.346874 391.97186 34.690624Q391.97186 34.096874 391.45624 33.753124Q391.09686 33.51875 389.65936 33.159374Q387.72186 32.659374 386.97186 32.315624Q386.2375 31.95625 385.84686 31.33125Q385.45624 30.690624 385.45624 29.925Q385.45624 29.2375 385.76874 28.64375Q386.09686 28.05 386.64374 27.659374Q387.05 27.3625 387.7531 27.159374Q388.47186 26.940624 389.28436 26.940624Q390.5031 26.940624 391.425 27.3Q392.34686 27.64375 392.78436 28.253124Q393.22186 28.846874 393.39374 29.846874L391.675 30.08125Q391.55 29.284374 390.9875 28.846874Q390.425 28.39375 389.40936 28.39375Q388.1906 28.39375 387.675 28.8Q387.15936 29.190624 387.15936 29.721874Q387.15936 30.065624 387.3781 30.346874Q387.58124 30.628124 388.05 30.815624Q388.3156 30.909374 389.59686 31.253124Q391.47186 31.753124 392.20624 32.08125Q392.9406 32.39375 393.3625 33.003124Q393.78436 33.596874 393.78436 34.503124Q393.78436 35.378124 393.26874 36.159374Q392.7531 36.940624 391.78436 37.3625Q390.8156 37.784374 389.59686 37.784374Q387.58124 37.784374 386.51874 36.940624Q385.45624 36.096874 385.15936 34.45625ZM403.4875 37.55L401.8625 37.55L401.8625 23.2375L403.6125 23.2375L403.6125 28.346874Q404.7375 26.940624 406.45624 26.940624Q407.40936 26.940624 408.26874 27.33125Q409.1281 27.721874 409.675 28.425Q410.22186 29.1125 410.53436 30.096874Q410.84686 31.08125 410.84686 32.20625Q410.84686 34.878124 409.53436 36.33125Q408.22186 37.784374 406.3781 37.784374Q404.53436 37.784374 403.4875 36.253124L403.4875 37.55ZM403.47186 32.284374Q403.47186 34.14375 403.97186 34.9875Q404.8156 36.33125 406.22186 36.33125Q407.3781 36.33125 408.20624 35.33125Q409.05 34.33125 409.05 32.346874Q409.05 30.315624 408.2375 29.3625Q407.4406 28.39375 406.3 28.39375Q405.14374 28.39375 404.3 29.39375Q403.47186 30.39375 403.47186 32.284374ZM419.97186 34.20625L421.78436 34.440624Q421.3625 36.01875 420.1906 36.909374Q419.03436 37.784374 417.22186 37.784374Q414.95624 37.784374 413.6125 36.39375Q412.28436 34.9875 412.28436 32.45625Q412.28436 29.83125 413.6281 28.39375Q414.97186 26.940624 417.1281 26.940624Q419.20624 26.940624 420.51874 28.3625Q421.84686 29.76875 421.84686 32.346874Q421.84686 32.503124 421.83124 32.815624L414.09686 32.815624Q414.1906 34.51875 415.0656 35.425Q415.9406 36.33125 417.2375 36.33125Q418.20624 36.33125 418.8781 35.83125Q419.5656 35.315624 419.97186 34.20625ZM414.1906 31.3625L419.9875 31.3625Q419.8781 30.065624 419.33124 29.409374Q418.4875 28.39375 417.14374 28.39375Q415.9406 28.39375 415.1125 29.20625Q414.28436 30.003124 414.1906 31.3625ZM427.70624 35.971874L427.95624 37.534374Q427.22186 37.690624 426.6281 37.690624Q425.675 37.690624 425.14374 37.39375Q424.6281 37.08125 424.40936 36.596874Q424.1906 36.096874 424.1906 34.51875L424.1906 28.55L422.90936 28.55L422.90936 27.175L424.1906 27.175L424.1906 24.6125L425.9406 23.55L425.9406 27.175L427.70624 27.175L427.70624 28.55L425.9406 28.55L425.9406 34.6125Q425.9406 35.3625 426.03436 35.58125Q426.1281 35.784374 426.33124 35.925Q426.55 36.05 426.9406 36.05Q427.22186 36.05 427.70624 35.971874ZM433.70624 35.971874L433.95624 37.534374Q433.22186 37.690624 432.6281 37.690624Q431.675 37.690624 431.14374 37.39375Q430.6281 37.08125 430.40936 36.596874Q430.1906 36.096874 430.1906 34.51875L430.1906 28.55L428.90936 28.55L428.90936 27.175L430.1906 27.175L430.1906 24.6125L431.9406 23.55L431.9406 27.175L433.70624 27.175L433.70624 28.55L431.9406 28.55L431.9406 34.6125Q431.9406 35.3625 432.03436 35.58125Q432.1281 35.784374 432.33124 35.925Q432.55 36.05 432.9406 36.05Q433.22186 36.05 433.70624 35.971874ZM442.97186 34.20625L444.78436 34.440624Q444.3625 36.01875 443.1906 36.909374Q442.03436 37.784374 440.22186 37.784374Q437.95624 37.784374 436.6125 36.39375Q435.28436 34.9875 435.28436 32.45625Q435.28436 29.83125 436.6281 28.39375Q437.97186 26.940624 440.1281 26.940624Q442.20624 26.940624 443.51874 28.3625Q444.84686 29.76875 444.84686 32.346874Q444.84686 32.503124 444.83124 32.815624L437.09686 32.815624Q437.1906 34.51875 438.0656 35.425Q438.9406 36.33125 440.2375 36.33125Q441.20624 36.33125 441.8781 35.83125Q442.5656 35.315624 442.97186 34.20625ZM437.1906 31.3625L442.9875 31.3625Q442.8781 30.065624 442.33124 29.409374Q441.4875 28.39375 440.14374 28.39375Q438.9406 28.39375 438.1125 29.20625Q437.28436 30.003124 437.1906 31.3625ZM446.84686 37.55L446.84686 27.175L448.425 27.175L448.425 28.753124Q449.03436 27.64375 449.55 27.3Q450.0656 26.940624 450.675 26.940624Q451.5656 26.940624 452.4875 27.503124L451.8781 29.14375Q451.2375 28.753124 450.59686 28.753124Q450.01874 28.753124 449.55 29.1125Q449.09686 29.45625 448.89374 30.065624Q448.6125 31.003124 448.6125 32.1125L448.6125 37.55L446.84686 37.55ZM455.01874 41.753124L453.76874 41.753124Q456.675 37.065624 456.675 32.378124Q456.675 30.534374 456.26874 28.7375Q455.925 27.26875 455.33124 25.925Q454.95624 25.034374 453.76874 22.9875L455.01874 22.9875Q456.8625 25.440624 457.7375 27.909374Q458.4875 30.034374 458.4875 32.3625Q458.4875 35.003124 457.47186 37.471874Q456.47186 39.925 455.01874 41.753124Z" fill-rule="nonzero"/></svg>